<svg xmlns="http://www.w3.org/2000/svg" width="50.378" height="31.457" viewBox="0 0 50.378 31.457">
    <path data-name="Path 1258" d="M119.338 130.4h-3.182v-24.158a1.018 1.018 0 0 0-1.018-1.018h-39.9a1.019 1.019 0 0 0-1.018 1.018V130.4h-3.182A1.039 1.039 0 0 0 70 131.442v1.05a1.082 1.082 0 0 0 .011.154c.266 1.774 1.687 3.752 3.606 3.991a1.1 1.1 0 0 0 .127.008l42.574.036c2.219 0 3.831-2.114 4.051-4.073a.971.971 0 0 0 .007-.116v-1.05a1.04 1.04 0 0 0-1.039-1.039zm-43.082-23.14h37.863v23.14h-13.9a1.029 1.029 0 0 0-.194.02h-9.291a1.039 1.039 0 0 0-.2-.02H76.255zm40.064 27.34-42.5-.036a2.711 2.711 0 0 1-1.73-2.087h17.676a2.038 2.038 0 0 0 1.773 1.05h7.674a2.04 2.04 0 0 0 1.773-1.05h17.3c-.162 1.024-1.01 2.123-1.97 2.123zm-26.755-19.95a1.05 1.05 0 0 0-1.485 0l-4.38 4.377a1.05 1.05 0 0 0 0 1.485l4.377 4.377a1.05 1.05 0 1 0 1.485-1.485l-3.635-3.635 3.635-3.635a1.05 1.05 0 0 0 0-1.485zM99.9 124.889a1.049 1.049 0 0 0 1.485 0l4.377-4.377a1.05 1.05 0 0 0 0-1.485l-4.377-4.377a1.05 1.05 0 1 0-1.485 1.485l3.635 3.635-3.635 3.63a1.049 1.049 0 0 0 0 1.485zm-8.851 2.243a1.051 1.051 0 0 0 1.409-.47l6.3-12.6a1.05 1.05 0 0 0-1.879-.939l-6.3 12.6a1.05 1.05 0 0 0 .469 1.408z" transform="translate(-69.999 -105.224)" style="fill:#00ffa1"/>
</svg>
