<svg width="210" height="73" viewBox="0 0 210 73" fill="none" xmlns="http://www.w3.org/2000/svg">
<path d="M179.212 16.0199L157.626 57.4378H166.235L179.212 31.4846L192.189 57.4378H200.798L179.212 16.0199Z" fill="white"/>
<path d="M140.362 43.5348C142.969 42.5157 145.06 40.8349 146.635 38.4923C148.21 36.1498 148.991 33.4102 148.991 30.2736C148.991 28.1958 148.64 26.2767 147.939 24.5231C147.237 22.7629 146.264 21.2542 145.014 19.9903C143.763 18.7263 142.261 17.7404 140.501 17.0455C138.74 16.3441 136.802 16 134.684 16H114.177V57.4775H122.111V23.0276H134.671C136.06 23.0276 137.172 23.2923 137.999 23.8217C138.826 24.3511 139.468 24.993 139.918 25.7473C140.368 26.5017 140.673 27.2958 140.818 28.1296C140.97 28.9568 141.043 29.678 141.043 30.2802C141.043 31.4515 140.845 32.4706 140.454 33.3374C140.057 34.2043 139.561 34.9322 138.959 35.5212C138.357 36.1101 137.668 36.5402 136.894 36.8248C136.12 37.1093 135.379 37.2483 134.664 37.2483H126.28L141.487 57.4775H150.671C147.29 52.7858 143.849 48.1405 140.362 43.5348Z" fill="white"/>
<path d="M103.08 41.6422C102.57 40.5106 101.915 39.5114 101.121 38.6512C100.327 37.7843 99.4268 37.0961 98.4342 36.5866C97.435 36.077 96.4225 35.7859 95.4034 35.7131C96.3828 35.6734 97.2894 35.3822 98.1232 34.833C98.9503 34.2837 99.6584 33.6154 100.247 32.8213C100.83 32.0272 101.293 31.1537 101.63 30.2074C101.968 29.2612 102.14 28.3678 102.14 27.534C102.14 25.1849 101.816 23.2659 101.174 21.7703C100.532 20.2748 99.665 19.0969 98.5665 18.2499C97.468 17.3963 96.1843 16.8139 94.7086 16.4897C93.2396 16.1654 91.6646 16.0066 90.0103 16.0066H71.7663V57.4841H90.9169C92.6903 57.4841 94.3645 57.279 95.9328 56.8621C97.5011 56.4452 98.8709 55.7636 100.042 54.7975C101.213 53.8313 102.14 52.5741 102.815 51.0124C103.496 49.4507 103.834 47.5382 103.834 45.2751C103.847 43.9847 103.589 42.7738 103.08 41.6422ZM79.7071 23.021H90.0169C90.586 23.021 91.122 23.1534 91.6316 23.418C92.1411 23.6827 92.5844 24.0268 92.9682 24.4437C93.3454 24.8606 93.6432 25.3569 93.8748 25.926C94.0998 26.4951 94.2123 27.084 94.2123 27.6928C94.2123 28.3016 94.1064 28.9171 93.9013 29.5457C93.6962 30.1744 93.3918 30.7302 92.9947 31.2265C92.5977 31.7162 92.108 32.1198 91.519 32.4242C90.9367 32.7286 90.2485 32.8808 89.4544 32.8808H79.7071V23.021ZM95.5159 46.8435C95.2512 47.5052 94.8939 48.114 94.4373 48.6566C93.9807 49.2058 93.4579 49.636 92.8491 49.9602C92.2403 50.2845 91.5985 50.4433 90.9235 50.4433H79.7071V39.9018H90.0765C91.8896 39.9018 93.319 40.3783 94.3513 41.318C95.3902 42.2642 95.9063 43.4355 95.9063 44.8318C95.913 45.5133 95.7806 46.1883 95.5159 46.8435Z" fill="white"/>
<path d="M14.5263 16.0199V23.3321H33.174L10 57.4445H18.8673L47.1762 16.0265H14.5263V16.0199Z" fill="#4FE070"/>
<path d="M58.0022 57.4445V50.1323H39.3545L62.5284 16.0199H53.6612L25.3522 57.4378H58.0022V57.4445Z" fill="#4FE070"/>
</svg>
