<svg xmlns="http://www.w3.org/2000/svg" width="21" height="21" viewBox="0 0 21 21">
  <defs>
    <style>
      .cls-1 {
        fill: #fff;
      }

      .cls-2 {
        fill: #173873;
        fill-rule: evenodd;
      }
    </style>
  </defs>
  <g id="Icone-Instagram" transform="translate(-0.348 -0.348)">
    <circle id="Circle" class="cls-1" cx="10.5" cy="10.5" r="10.5" transform="translate(0.348 0.348)"/>
    <path id="Icon_Instagram" data-name="Icon Instagram" class="cls-2" d="M84.311,77H94.463a.311.311,0,0,1,.311.311V87.463a.311.311,0,0,1-.311.311H84.311A.311.311,0,0,1,84,87.463V77.311A.311.311,0,0,1,84.311,77Zm5.058,1.678a3.684,3.684,0,1,1-3.684,3.684,3.684,3.684,0,0,1,3.684-3.684Zm0,1.234a2.45,2.45,0,1,1-2.45,2.45,2.45,2.45,0,0,1,2.45-2.45Z" transform="translate(-78.483 -71.167)"/>
  </g>
</svg>
