<svg xmlns="http://www.w3.org/2000/svg" width="21.695" height="21.695" viewBox="0 0 21.695 21.695">
    <path d="M23.112 4H6.583A2.586 2.586 0 0 0 4 6.583v16.529a2.586 2.586 0 0 0 2.583 2.583h16.53a2.586 2.586 0 0 0 2.583-2.583V6.583A2.586 2.586 0 0 0 23.112 4zm-2.063 9.465a3.805 3.805 0 0 1-.356.018 3.87 3.87 0 0 1-3.238-1.75v5.959a4.4 4.4 0 1 1-4.4-4.4c.092 0 .182.008.272.014v2.171a2.243 2.243 0 1 0-.272 4.469 2.3 2.3 0 0 0 2.338-2.22l.022-10.121h2.074a3.868 3.868 0 0 0 3.565 3.453z" transform="translate(-4 -4)" style="fill:#fff"/>
</svg>
