<svg xmlns="http://www.w3.org/2000/svg" width="21.695" height="21.695" viewBox="0 0 21.695 21.695">
    <path data-name="icons8-twitter-dentro-de-um-ciÌrculo (1)" d="M12.847 2a10.847 10.847 0 1 0 10.848 10.847A10.859 10.859 0 0 0 12.847 2zm5.3 8.736c0 .111.008.224.008.338a7.43 7.43 0 0 1-11.439 6.259 5.281 5.281 0 0 0 3.867-1.081 2.618 2.618 0 0 1-2.441-1.814 2.607 2.607 0 0 0 1.18-.045 2.615 2.615 0 0 1-2.095-2.562V11.8a2.6 2.6 0 0 0 1.183.327 2.617 2.617 0 0 1-.81-3.491 7.421 7.421 0 0 0 5.385 2.73 2.614 2.614 0 0 1 4.451-2.383A5.237 5.237 0 0 0 19.1 8.35a2.62 2.62 0 0 1-1.151 1.45 5.254 5.254 0 0 0 1.5-.412 5.312 5.312 0 0 1-1.302 1.348z" transform="translate(-2 -2)" style="fill:#fff"/>
</svg>
