<svg xmlns="http://www.w3.org/2000/svg" width="31.493" height="31.493" viewBox="0 0 31.493 31.493">
    <path data-name="Path 1260" d="m483.836 224.821-1.373 1.374a1.43 1.43 0 1 1-2.022-2.023l1.373-1.374-1.373-1.374a1.43 1.43 0 1 1 2.022-2.023l1.373 1.374 1.373-1.374a1.43 1.43 0 0 1 2.022 2.023l-1.373 1.374 1.373 1.374a1.43 1.43 0 1 1-2.022 2.023z" transform="translate(-456.154 -207.052)" style="fill:#00ffa1"/>
    <path data-name="Path 1261" d="M431.365 417.1a1.439 1.439 0 0 1-2.022 0l-1.373-1.374-1.37 1.374a1.43 1.43 0 0 1-2.022-2.023l1.373-1.374-1.373-1.374a1.43 1.43 0 0 1 2.022-2.023l1.373 1.374 1.373-1.374a1.43 1.43 0 0 1 2.022 2.023l-1.373 1.374 1.373 1.374a1.441 1.441 0 0 1-.003 2.023z" transform="translate(-403.778 -386.03)" style="fill:#00ffa1"/>
    <path data-name="Path 1262" d="M107.539 53.294a3.339 3.339 0 1 0-3.339 3.34 3.331 3.331 0 0 0 3.339-3.34zm2.671-1.432h1.621a2.386 2.386 0 0 0 2.385-2.386v-4.447a9.074 9.074 0 0 1 2.652-6.413l7.726-7.749h-1.927a1.432 1.432 0 0 1 0-2.863h5.38a1.368 1.368 0 0 1 .553.114 1.474 1.474 0 0 1 .458.306.833.833 0 0 1 .172.21 1.05 1.05 0 0 1 .229.516c0 .1.019.191.019.286s-.019.191-.019.286l.019-.019v5.134a1.431 1.431 0 1 1-2.862 0v-1.928l-7.727 7.73a6.214 6.214 0 0 0-1.812 4.39v4.447a5.245 5.245 0 0 1-5.246 5.249h-1.6a6.244 6.244 0 1 1-.019-2.863z" transform="translate(-97.999 -28.004)" style="fill:#00ffa1"/>
    <path data-name="Path 1263" d="M209.52 181.221a1.43 1.43 0 1 1 2.022 2.023l-1.373 1.374 1.373 1.374a1.43 1.43 0 1 1-2.022 2.023l-1.373-1.374-1.373 1.374a1.43 1.43 0 0 1-2.022-2.023l1.373-1.374-1.373-1.374a1.43 1.43 0 1 1 2.022-2.023l1.373 1.374z" transform="translate(-197.691 -171.257)" style="fill:#00ffa1"/>
    <path data-name="Path 1264" d="M105.294 33.259a1.437 1.437 0 1 1-2.042 2.023l-1.352-1.355-1.373 1.355a1.437 1.437 0 0 1-2.042-2.023l1.373-1.374-1.373-1.374a1.44 1.44 0 0 1 0-2.023 1.462 1.462 0 0 1 2.042 0l1.373 1.374 1.355-1.374a1.462 1.462 0 0 1 2.042 0 1.44 1.44 0 0 1 0 2.023l-1.373 1.374z" transform="translate(-98.064 -28.068)" style="fill:#00ffa1"/>
</svg>
