<svg xmlns="http://www.w3.org/2000/svg" width="31.016" height="31.489" viewBox="0 0 31.016 31.489">
    <path data-name="Path 1252" d="M69.711 288.825v13.708l-25.431.069v-13.778h-1.245V302.6a1.675 1.675 0 0 0 .374 1.057 1.091 1.091 0 0 0 .872.413h25.467a1.1 1.1 0 0 0 .848-.429 1.68 1.68 0 0 0 .36-1.041v-13.776z" transform="translate(-41.495 -272.584)" style="fill:#00ffa1"/>
    <path data-name="Path 1253" d="M46.669 128.845a1.718 1.718 0 0 0-.372-1.088 1.169 1.169 0 0 0-.9-.451H16.923a1.168 1.168 0 0 0-.9.451 1.718 1.718 0 0 0-.372 1.088v7.543h31.018zm-29.746-.023H45.38v6H16.923z" transform="translate(-15.653 -120.147)" style="fill:#00ffa1"/>
    <path data-name="Path 1254" d="M205.635 2.386a.077.077 0 0 1 .077-.077H217.4a.076.076 0 0 1 .077.077V5.6h2.309V2.386A2.386 2.386 0 0 0 217.4 0h-11.688a2.386 2.386 0 0 0-2.386 2.386V5.6h2.309z" transform="translate(-196.061)" style="fill:#00ffa1"/>
    <path data-name="Path 1259" d="M87.356 113.9a.674.674 0 0 0-.953 0l-2.81 2.81a.674.674 0 0 0 0 .953l2.81 2.809a.674.674 0 0 0 .953-.953l-2.333-2.333 2.333-2.333a.674.674 0 0 0 0-.953zm6.635 6.572a.674.674 0 0 0 .953 0l2.809-2.809a.674.674 0 0 0 0-.953l-2.809-2.81a.674.674 0 1 0-.953.953l2.333 2.333-2.333 2.333a.674.674 0 0 0 0 .953zm-5.681 1.439a.674.674 0 0 0 .9-.3l4.044-8.087a.674.674 0 0 0-1.206-.6L88.009 121a.674.674 0 0 0 .3.9z" transform="translate(-75.173 -93.67)" style="fill:#00ffa1"/>
</svg>
