<svg xmlns="http://www.w3.org/2000/svg" width="21.695" height="20.145" viewBox="0 0 21.695 20.145">
    <path d="M8.649 5 10.2 9.649v3.1h1.033v-3.1L12.781 5h-1.033l-1.033 3.1L9.682 5zm5.682 2.066a1.552 1.552 0 0 0-1.158.363c-.323.272-.412.482-.391 1.186V11.2a1.429 1.429 0 0 0 .4 1.154 1.477 1.477 0 0 0 1.154.4 1.448 1.448 0 0 0 1.162-.4 1.372 1.372 0 0 0 .387-1.154V8.616a1.53 1.53 0 0 0-.393-1.176 1.521 1.521 0 0 0-1.161-.374zm2.583 0v4.649a1.114 1.114 0 0 0 1.033 1.033 1.294 1.294 0 0 0 1.033-.517v.517h1.033V7.066H18.98V11.2c-.006.353-.422.517-.517.517a.476.476 0 0 1-.517-.517V7.066zM14.331 8.1c.155 0 .517 0 .517.517V11.2c0 .5-.349.517-.517.517s-.517-.006-.517-.517V8.616c0-.422.224-.516.517-.516zM7.1 13.781A2.925 2.925 0 0 0 4 16.88v4.907a3.138 3.138 0 0 0 3.1 3.358h15.5a2.925 2.925 0 0 0 3.1-3.1V16.88a2.925 2.925 0 0 0-3.1-3.1zm1.033 2.066h3.1v1.033H10.2v6.2H9.165v-6.2H8.132zm7.232 0H16.4v2.066a1.2 1.2 0 0 1 .466-.416 1.1 1.1 0 0 1 .5-.133.944.944 0 0 1 .777.347 1.5 1.5 0 0 1 .321.977v3.1a1.2 1.2 0 0 1-.3.825 1.048 1.048 0 0 1-.734.466 1.264 1.264 0 0 1-1.033-.517v.517h-1.033zM11.232 17.4h1.033v4.132a.556.556 0 0 0 .517.517c.42 0 .424-.4.517-.517V17.4h1.033v5.682H13.3v-.517a1.307 1.307 0 0 1-.506.4 1.2 1.2 0 0 1-.634.113 1.016 1.016 0 0 1-.668-.4.931.931 0 0 1-.258-.638zm9.4 0a1.394 1.394 0 0 1 1.1.379 1.435 1.435 0 0 1 .351 1.112V20.5h-2.07v.8a1.062 1.062 0 0 0 .113.581.43.43 0 0 0 .4.169.491.491 0 0 0 .414-.139 1.227 1.227 0 0 0 .1-.636v-.258h1.033v.307a1.686 1.686 0 0 1-.323 1.257 1.561 1.561 0 0 1-1.202.419 1.48 1.48 0 0 1-1.148-.444 1.755 1.755 0 0 1-.418-1.235v-2.433a1.518 1.518 0 0 1 .464-1.124 1.7 1.7 0 0 1 1.186-.364zm-3.719.775a.537.537 0 0 0-.517.517v3.1c0 .149.232.258.517.258a.507.507 0 0 0 .517-.5v-2.603c0-.517-.23-.775-.516-.775zm3.616.258a.526.526 0 0 0-.517.517v.517h1.033v-.517a.5.5 0 0 0-.515-.52z" transform="translate(-4 -5)" style="fill:#fff;fill-rule:evenodd"/>
</svg>
